<svg xmlns="http://www.w3.org/2000/svg" width="128" height="128" viewBox="0 0 128 128"><rect width="100%" height="100%" fill="#DDDDDD"/><path fill="#999999" d="M49.578 79.715q0-.99.37-1.89.36-.9 1-1.54t1.54-1.02q.9-.38 1.92-.38t1.9.38q.88.38 1.54 1.02t1.04 1.54q.38.9.38 1.89 0 1.02-.38 1.9-.38.88-1.04 1.52t-1.54 1.01q-.88.37-1.9.37t-1.92-.37q-.9-.37-1.54-1.01t-1-1.52q-.37-.88-.37-1.9Zm0-22.82q0-.99.37-1.89.36-.89 1-1.53t1.54-1.03q.9-.38 1.92-.38t1.9.38q.88.39 1.54 1.03t1.04 1.53q.38.9.38 1.89 0 1.03-.38 1.91-.38.88-1.04 1.52t-1.54 1q-.88.37-1.9.37t-1.92-.37q-.9-.36-1.54-1t-1-1.52q-.37-.88-.37-1.91Zm22.27 7.11q0 6.59 1.6 12.96 1.6 6.36 4.58 11.96.32.64.36 1.14.05.5-.08.86-.12.37-.4.64-.27.28-.59.47l-3.52 2.14q-2.37-3.65-4.03-7.33-1.66-3.68-2.72-7.42-1.06-3.74-1.55-7.58-.5-3.84-.5-7.84t.5-7.86q.49-3.86 1.55-7.6 1.06-3.74 2.72-7.41 1.66-3.66 4.03-7.31l3.52 2.11q.32.19.59.47.28.27.4.64.13.36.08.86-.04.5-.36 1.17-2.98 5.57-4.58 11.95-1.6 6.38-1.6 12.98Z"/></svg>